<mxfile host="app.diagrams.net" agent="Mozilla/5.0 (Windows NT 10.0; Win64; x64) AppleWebKit/537.36 (KHTML, like Gecko) Chrome/139.0.0.0 Safari/537.36" version="28.1.1">
  <diagram name="Page-1" id="LUpz-rSqicJl7MnPxta1">
    <mxGraphModel dx="1042" dy="562" grid="1" gridSize="10" guides="1" tooltips="1" connect="1" arrows="1" fold="1" page="1" pageScale="1" pageWidth="850" pageHeight="1100" math="0" shadow="0">
      <root>
        <mxCell id="0" />
        <mxCell id="1" parent="0" />
        <mxCell id="NRTNMvH-77B67YWmMOql-8" value="" style="edgeStyle=orthogonalEdgeStyle;rounded=0;orthogonalLoop=1;jettySize=auto;html=1;" edge="1" parent="1" source="NRTNMvH-77B67YWmMOql-1" target="NRTNMvH-77B67YWmMOql-2">
          <mxGeometry relative="1" as="geometry" />
        </mxCell>
        <mxCell id="NRTNMvH-77B67YWmMOql-1" value="START" style="ellipse;whiteSpace=wrap;html=1;fillColor=#0050ef;fontColor=#ffffff;strokeColor=#001DBC;" vertex="1" parent="1">
          <mxGeometry x="110" width="210" height="70" as="geometry" />
        </mxCell>
        <mxCell id="NRTNMvH-77B67YWmMOql-9" value="" style="edgeStyle=orthogonalEdgeStyle;rounded=0;orthogonalLoop=1;jettySize=auto;html=1;" edge="1" parent="1" source="NRTNMvH-77B67YWmMOql-2" target="NRTNMvH-77B67YWmMOql-3">
          <mxGeometry relative="1" as="geometry" />
        </mxCell>
        <mxCell id="NRTNMvH-77B67YWmMOql-2" value="NEW&lt;div&gt;USER&lt;/div&gt;" style="rhombus;whiteSpace=wrap;html=1;direction=south;fillColor=#6a00ff;fontColor=#ffffff;strokeColor=#3700CC;" vertex="1" parent="1">
          <mxGeometry x="137.5" y="100" width="155" height="90" as="geometry" />
        </mxCell>
        <mxCell id="NRTNMvH-77B67YWmMOql-10" value="" style="edgeStyle=orthogonalEdgeStyle;rounded=0;orthogonalLoop=1;jettySize=auto;html=1;" edge="1" parent="1" source="NRTNMvH-77B67YWmMOql-3" target="NRTNMvH-77B67YWmMOql-5">
          <mxGeometry relative="1" as="geometry">
            <Array as="points">
              <mxPoint x="211" y="310" />
              <mxPoint x="211" y="310" />
            </Array>
          </mxGeometry>
        </mxCell>
        <mxCell id="NRTNMvH-77B67YWmMOql-3" value="RECOGNIZE&lt;div&gt;THE FACE&lt;/div&gt;" style="shape=parallelogram;perimeter=parallelogramPerimeter;whiteSpace=wrap;html=1;fixedSize=1;fillColor=#6a00ff;fontColor=#ffffff;strokeColor=#3700CC;" vertex="1" parent="1">
          <mxGeometry x="120" y="220" width="190" height="70" as="geometry" />
        </mxCell>
        <mxCell id="NRTNMvH-77B67YWmMOql-11" value="" style="edgeStyle=orthogonalEdgeStyle;rounded=0;orthogonalLoop=1;jettySize=auto;html=1;entryX=0.566;entryY=0.02;entryDx=0;entryDy=0;entryPerimeter=0;" edge="1" parent="1" source="NRTNMvH-77B67YWmMOql-5" target="NRTNMvH-77B67YWmMOql-6">
          <mxGeometry relative="1" as="geometry">
            <mxPoint x="210" y="420" as="targetPoint" />
            <Array as="points">
              <mxPoint x="211" y="430" />
              <mxPoint x="210" y="430" />
              <mxPoint x="210" y="431" />
            </Array>
          </mxGeometry>
        </mxCell>
        <mxCell id="NRTNMvH-77B67YWmMOql-5" value="FACE&lt;div&gt;RECOGNIZED&lt;/div&gt;" style="rhombus;whiteSpace=wrap;html=1;fillColor=#6a00ff;fontColor=#ffffff;strokeColor=#3700CC;" vertex="1" parent="1">
          <mxGeometry x="137.5" y="310" width="147.5" height="100" as="geometry" />
        </mxCell>
        <mxCell id="NRTNMvH-77B67YWmMOql-12" value="" style="edgeStyle=orthogonalEdgeStyle;rounded=0;orthogonalLoop=1;jettySize=auto;html=1;" edge="1" parent="1" source="NRTNMvH-77B67YWmMOql-6" target="NRTNMvH-77B67YWmMOql-7">
          <mxGeometry relative="1" as="geometry" />
        </mxCell>
        <mxCell id="NRTNMvH-77B67YWmMOql-6" value="STORE IN CSV FILE" style="shape=parallelogram;perimeter=parallelogramPerimeter;whiteSpace=wrap;html=1;fixedSize=1;fillColor=#6a00ff;fontColor=#ffffff;strokeColor=#3700CC;" vertex="1" parent="1">
          <mxGeometry x="100" y="440" width="200" height="70" as="geometry" />
        </mxCell>
        <mxCell id="NRTNMvH-77B67YWmMOql-7" value="END" style="ellipse;whiteSpace=wrap;html=1;fillColor=#0050ef;fontColor=#ffffff;strokeColor=#001DBC;" vertex="1" parent="1">
          <mxGeometry x="112.5" y="540" width="180" height="80" as="geometry" />
        </mxCell>
        <mxCell id="NRTNMvH-77B67YWmMOql-13" value="STORE THE FACE&lt;div&gt;DATA IN FOLDER&lt;/div&gt;&lt;div&gt;ON UR NAME&lt;/div&gt;" style="rounded=0;whiteSpace=wrap;html=1;fillColor=#0050ef;fontColor=#ffffff;strokeColor=#001DBC;" vertex="1" parent="1">
          <mxGeometry x="490" y="240" width="120" height="60" as="geometry" />
        </mxCell>
        <mxCell id="NRTNMvH-77B67YWmMOql-14" value="GIVE YOUR&lt;div&gt;PHOTOGRAPH&lt;/div&gt;" style="rounded=0;whiteSpace=wrap;html=1;fillColor=#0050ef;fontColor=#ffffff;strokeColor=#001DBC;" vertex="1" parent="1">
          <mxGeometry x="490" y="115" width="120" height="60" as="geometry" />
        </mxCell>
        <mxCell id="NRTNMvH-77B67YWmMOql-15" value="" style="endArrow=none;html=1;rounded=0;entryX=0;entryY=0.5;entryDx=0;entryDy=0;exitX=0.5;exitY=0;exitDx=0;exitDy=0;" edge="1" parent="1" source="NRTNMvH-77B67YWmMOql-2" target="NRTNMvH-77B67YWmMOql-14">
          <mxGeometry width="50" height="50" relative="1" as="geometry">
            <mxPoint x="300" y="140" as="sourcePoint" />
            <mxPoint x="480" y="140" as="targetPoint" />
          </mxGeometry>
        </mxCell>
        <mxCell id="NRTNMvH-77B67YWmMOql-16" value="" style="endArrow=none;html=1;rounded=0;exitX=1;exitY=0.5;exitDx=0;exitDy=0;entryX=-0.02;entryY=0.39;entryDx=0;entryDy=0;entryPerimeter=0;" edge="1" parent="1" source="NRTNMvH-77B67YWmMOql-3" target="NRTNMvH-77B67YWmMOql-13">
          <mxGeometry width="50" height="50" relative="1" as="geometry">
            <mxPoint x="400" y="290" as="sourcePoint" />
            <mxPoint x="450" y="240" as="targetPoint" />
            <Array as="points">
              <mxPoint x="300" y="263" />
            </Array>
          </mxGeometry>
        </mxCell>
        <mxCell id="NRTNMvH-77B67YWmMOql-20" value="" style="endArrow=none;html=1;rounded=0;" edge="1" parent="1">
          <mxGeometry width="50" height="50" relative="1" as="geometry">
            <mxPoint x="285" y="359.5" as="sourcePoint" />
            <mxPoint x="740" y="359.5" as="targetPoint" />
            <Array as="points">
              <mxPoint x="300" y="359.5" />
            </Array>
          </mxGeometry>
        </mxCell>
        <mxCell id="NRTNMvH-77B67YWmMOql-21" value="" style="endArrow=none;html=1;rounded=0;" edge="1" parent="1">
          <mxGeometry width="50" height="50" relative="1" as="geometry">
            <mxPoint x="740" y="360" as="sourcePoint" />
            <mxPoint x="740" y="60" as="targetPoint" />
          </mxGeometry>
        </mxCell>
        <mxCell id="NRTNMvH-77B67YWmMOql-22" value="" style="endArrow=none;html=1;rounded=0;" edge="1" parent="1">
          <mxGeometry width="50" height="50" relative="1" as="geometry">
            <mxPoint x="550" y="60" as="sourcePoint" />
            <mxPoint x="740" y="60" as="targetPoint" />
          </mxGeometry>
        </mxCell>
        <mxCell id="NRTNMvH-77B67YWmMOql-23" value="" style="endArrow=classic;html=1;rounded=0;" edge="1" parent="1">
          <mxGeometry width="50" height="50" relative="1" as="geometry">
            <mxPoint x="550" y="60" as="sourcePoint" />
            <mxPoint x="550" y="110" as="targetPoint" />
          </mxGeometry>
        </mxCell>
        <mxCell id="NRTNMvH-77B67YWmMOql-24" value="YES&lt;div&gt;&lt;br&gt;&lt;/div&gt;" style="text;html=1;align=center;verticalAlign=middle;resizable=0;points=[];autosize=1;strokeColor=none;fillColor=none;" vertex="1" parent="1">
          <mxGeometry x="385" y="115" width="50" height="40" as="geometry" />
        </mxCell>
        <mxCell id="NRTNMvH-77B67YWmMOql-25" value="NO" style="text;html=1;align=center;verticalAlign=middle;resizable=0;points=[];autosize=1;strokeColor=none;fillColor=none;" vertex="1" parent="1">
          <mxGeometry x="405" y="330" width="40" height="30" as="geometry" />
        </mxCell>
      </root>
    </mxGraphModel>
  </diagram>
</mxfile>
